<?xml version="1.0" encoding="UTF-8" standalone="no"?>
<!DOCTYPE svg PUBLIC "-//W3C//DTD SVG 1.1//EN"
"http://www.w3.org/Graphics/SVG/1.1/DTD/svg11.dtd">
<svg viewBox="0 0 909 1286" version="1.1" xmlns="http://www.w3.org/2000/svg" xmlns:xlink="http://www.w3.org/1999/xlink">
<defs>
<clipPath id="c0_1"><path d="M0 1286.8V0H909.8V1286.8Z"/></clipPath>
<clipPath id="c1_1"><path d="M702.2 225.1V45.2H845.4V225.1Z"/></clipPath>
<style type="text/css"><![CDATA[
.g0_1{
fill: #FFF;
}
.g1_1{
fill: none;
stroke: #5F67A4;
stroke-width: 4.583;
stroke-miterlimit: 10;
}
.g2_1{
fill: #000;
}
]]></style>
</defs>
<g clip-path="url(#c0_1)">
<path d="M0 0H909.8V1286.8H0V0Z" class="g0_1"/>
<path d="M0 0H909.8V1286.8H0V0Z" class="g0_1"/>
</g>
<path d="M172.4 248.7H867.1m-498 496.4h498m-747 154.2h747m-747 240.8h747M172.4 562.3H867.1M172.5 326.5H867.1" class="g1_1"/>
<image clip-path="url(#c1_1)" preserveAspectRatio="none" x="648" y="12" width="254" height="316" xlink:href="img/1.jpg"/>
<path d="M271.7 378.8c0 .4 -.1 .7 -.2 1.1c-.2 .3 -.4 .6 -.6 .9c-.3 .3 -.6 .5 -1 .6c-.3 .2 -.7 .3 -1.1 .3c-.3 0 -.7 -.1 -1.1 -.3c-.3 -.1 -.6 -.3 -.9 -.6c-.3 -.3 -.5 -.6 -.6 -.9c-.2 -.4 -.2 -.7 -.2 -1.1c0 -.4 0 -.8 .2 -1.1c.1 -.4 .3 -.7 .6 -.9c.3 -.3 .6 -.5 .9 -.7c.4 -.1 .8 -.2 1.1 -.2c.4 0 .8 .1 1.1 .2c.4 .2 .7 .4 1 .7c.2 .2 .4 .5 .6 .9c.1 .3 .2 .7 .2 1.1Z" class="g2_1"/>
<path d="M271.7 435.9c0 .4 -.1 .7 -.2 1.1c-.2 .3 -.4 .6 -.6 .9c-.3 .3 -.6 .5 -1 .6c-.3 .2 -.7 .2 -1.1 .2c-.3 0 -.7 0 -1.1 -.2c-.3 -.1 -.6 -.3 -.9 -.6c-.3 -.3 -.5 -.6 -.6 -.9c-.2 -.4 -.2 -.7 -.2 -1.1c0 -.4 0 -.8 .2 -1.1c.1 -.4 .3 -.7 .6 -.9c.3 -.3 .6 -.5 .9 -.7c.4 -.1 .8 -.2 1.1 -.2c.4 0 .8 .1 1.1 .2c.4 .2 .7 .4 1 .7c.2 .2 .4 .5 .6 .9c.1 .3 .2 .7 .2 1.1Z" class="g2_1"/>
<path d="M271.7 481.7c0 .4 -.1 .8 -.2 1.1c-.2 .4 -.4 .7 -.6 .9c-.3 .3 -.6 .5 -1 .7c-.3 .1 -.7 .2 -1.1 .2c-.3 0 -.7 -.1 -1.1 -.2c-.3 -.2 -.6 -.4 -.9 -.7c-.3 -.2 -.5 -.5 -.6 -.9c-.2 -.3 -.2 -.7 -.2 -1.1c0 -.4 0 -.7 .2 -1.1c.1 -.3 .3 -.6 .6 -.9c.3 -.3 .6 -.5 .9 -.6c.4 -.2 .8 -.3 1.1 -.3c.4 0 .8 .1 1.1 .3c.4 .1 .7 .3 1 .6c.2 .3 .4 .6 .6 .9c.1 .4 .2 .7 .2 1.1Z" class="g2_1"/>
<path d="M271.7 504.6c0 .4 -.1 .8 -.2 1.1c-.2 .4 -.4 .7 -.6 1c-.3 .2 -.6 .4 -1 .6c-.3 .1 -.7 .2 -1.1 .2c-.3 0 -.7 -.1 -1.1 -.2c-.3 -.2 -.6 -.4 -.9 -.6c-.3 -.3 -.5 -.6 -.6 -1c-.2 -.3 -.2 -.7 -.2 -1.1c0 -.4 0 -.7 .2 -1.1c.1 -.3 .3 -.6 .6 -.9c.3 -.3 .6 -.5 .9 -.6c.4 -.2 .8 -.2 1.1 -.2c.4 0 .8 0 1.1 .2c.4 .1 .7 .3 1 .6c.2 .3 .4 .6 .6 .9c.1 .4 .2 .7 .2 1.1Z" class="g2_1"/>
<path d="M271.7 527.5c0 .4 -.1 .8 -.2 1.1c-.2 .4 -.4 .7 -.6 1c-.3 .2 -.6 .4 -1 .6c-.3 .1 -.7 .2 -1.1 .2c-.3 0 -.7 -.1 -1.1 -.2c-.3 -.2 -.6 -.4 -.9 -.6c-.3 -.3 -.5 -.6 -.6 -1c-.2 -.3 -.2 -.7 -.2 -1.1c0 -.3 0 -.7 .2 -1.1c.1 -.3 .3 -.6 .6 -.9c.3 -.2 .6 -.5 .9 -.6c.4 -.1 .8 -.2 1.1 -.2c.4 0 .8 .1 1.1 .2c.4 .1 .7 .4 1 .6c.2 .3 .4 .6 .6 .9c.1 .4 .2 .8 .2 1.1Z" class="g2_1"/>
<path d="M271.7 624.2c0 .4 -.1 .7 -.2 1.1c-.2 .3 -.4 .6 -.6 .9c-.3 .3 -.6 .5 -1 .6c-.3 .2 -.7 .2 -1.1 .2c-.3 0 -.7 0 -1.1 -.2c-.3 -.1 -.6 -.3 -.9 -.6c-.3 -.3 -.5 -.6 -.6 -.9c-.2 -.4 -.2 -.7 -.2 -1.1c0 -.4 0 -.8 .2 -1.1c.1 -.4 .3 -.7 .6 -.9c.3 -.3 .6 -.5 .9 -.7c.4 -.1 .8 -.2 1.1 -.2c.4 0 .8 .1 1.1 .2c.4 .2 .7 .4 1 .7c.2 .2 .4 .5 .6 .9c.1 .3 .2 .7 .2 1.1Z" class="g2_1"/>
<path d="M271.7 704.7c0 .3 -.1 .7 -.2 1c-.2 .4 -.4 .7 -.6 1c-.3 .2 -.6 .5 -1 .6c-.3 .1 -.7 .2 -1.1 .2c-.3 0 -.7 -.1 -1.1 -.2c-.3 -.1 -.6 -.4 -.9 -.6c-.3 -.3 -.5 -.6 -.6 -1c-.2 -.3 -.2 -.7 -.2 -1c0 -.4 0 -.8 .2 -1.1c.1 -.4 .3 -.7 .6 -1c.3 -.2 .6 -.5 .9 -.6c.4 -.1 .8 -.2 1.1 -.2c.4 0 .8 .1 1.1 .2c.4 .1 .7 .4 1 .6c.2 .3 .4 .6 .6 1c.1 .3 .2 .7 .2 1.1Z" class="g2_1"/>
<path d="M271.7 793.6c0 .3 -.1 .7 -.2 1.1c-.2 .3 -.4 .6 -.6 .9c-.3 .3 -.6 .5 -1 .6c-.3 .2 -.7 .2 -1.1 .2c-.3 0 -.7 0 -1.1 -.2c-.3 -.1 -.6 -.3 -.9 -.6c-.3 -.3 -.5 -.6 -.6 -.9c-.2 -.4 -.2 -.8 -.2 -1.1c0 -.4 0 -.8 .2 -1.1c.1 -.4 .3 -.7 .6 -1c.3 -.2 .6 -.4 .9 -.6c.4 -.1 .8 -.2 1.1 -.2c.4 0 .8 .1 1.1 .2c.4 .2 .7 .4 1 .6c.2 .3 .4 .6 .6 1c.1 .3 .2 .7 .2 1.1Z" class="g2_1"/>
<path d="M271.7 816.5c0 .4 -.1 .7 -.2 1.1c-.2 .3 -.4 .6 -.6 .9c-.3 .3 -.6 .5 -1 .6c-.3 .2 -.7 .2 -1.1 .2c-.3 0 -.7 0 -1.1 -.2c-.3 -.1 -.6 -.3 -.9 -.6c-.3 -.3 -.5 -.6 -.6 -.9c-.2 -.4 -.2 -.7 -.2 -1.1c0 -.4 0 -.8 .2 -1.1c.1 -.4 .3 -.7 .6 -.9c.3 -.3 .6 -.5 .9 -.7c.4 -.1 .8 -.2 1.1 -.2c.4 0 .8 .1 1.1 .2c.4 .2 .7 .4 1 .7c.2 .2 .4 .5 .6 .9c.1 .3 .2 .7 .2 1.1Z" class="g2_1"/>
<path d="M271.7 925.7c0 .4 -.1 .7 -.2 1.1c-.2 .3 -.4 .7 -.6 .9c-.3 .3 -.6 .5 -1 .6c-.3 .2 -.7 .3 -1.1 .3c-.3 0 -.7 -.1 -1.1 -.3c-.3 -.1 -.6 -.3 -.9 -.6c-.3 -.2 -.5 -.6 -.6 -.9c-.2 -.4 -.2 -.7 -.2 -1.1c0 -.4 0 -.8 .2 -1.1c.1 -.4 .3 -.7 .6 -.9c.3 -.3 .6 -.5 .9 -.7c.4 -.1 .8 -.2 1.1 -.2c.4 0 .8 .1 1.1 .2c.4 .2 .7 .4 1 .7c.2 .2 .4 .5 .6 .9c.1 .3 .2 .7 .2 1.1Z" class="g2_1"/>
<path d="M271.7 948.6c0 .4 -.1 .8 -.2 1.1c-.2 .4 -.4 .7 -.6 .9c-.3 .3 -.6 .5 -1 .7c-.3 .1 -.7 .2 -1.1 .2c-.3 0 -.7 -.1 -1.1 -.2c-.3 -.2 -.6 -.4 -.9 -.7c-.3 -.2 -.5 -.5 -.6 -.9c-.2 -.3 -.2 -.7 -.2 -1.1c0 -.4 0 -.7 .2 -1.1c.1 -.3 .3 -.6 .6 -.9c.3 -.3 .6 -.5 .9 -.6c.4 -.2 .8 -.3 1.1 -.3c.4 0 .8 .1 1.1 .3c.4 .1 .7 .3 1 .6c.2 .3 .4 .6 .6 .9c.1 .4 .2 .7 .2 1.1Z" class="g2_1"/>
<path d="M271.7 971.5c0 .4 -.1 .8 -.2 1.1c-.2 .4 -.4 .7 -.6 1c-.3 .2 -.6 .4 -1 .6c-.3 .1 -.7 .2 -1.1 .2c-.3 0 -.7 -.1 -1.1 -.2c-.3 -.2 -.6 -.4 -.9 -.6c-.3 -.3 -.5 -.6 -.6 -1c-.2 -.3 -.2 -.7 -.2 -1.1c0 -.4 0 -.7 .2 -1.1c.1 -.3 .3 -.6 .6 -.9c.3 -.3 .6 -.5 .9 -.6c.4 -.2 .8 -.2 1.1 -.2c.4 0 .8 0 1.1 .2c.4 .1 .7 .3 1 .6c.2 .3 .4 .6 .6 .9c.1 .4 .2 .7 .2 1.1Z" class="g2_1"/>
<path d="M271.7 994.4c0 .4 -.1 .8 -.2 1.1c-.2 .4 -.4 .7 -.6 1c-.3 .2 -.6 .4 -1 .6c-.3 .1 -.7 .2 -1.1 .2c-.3 0 -.7 -.1 -1.1 -.2c-.3 -.2 -.6 -.4 -.9 -.6c-.3 -.3 -.5 -.6 -.6 -1c-.2 -.3 -.2 -.7 -.2 -1.1c0 -.3 0 -.7 .2 -1.1c.1 -.3 .3 -.6 .6 -.9c.3 -.3 .6 -.5 .9 -.6c.4 -.1 .8 -.2 1.1 -.2c.4 0 .8 .1 1.1 .2c.4 .1 .7 .3 1 .6c.2 .3 .4 .6 .6 .9c.1 .4 .2 .8 .2 1.1Z" class="g2_1"/>
<path d="M271.7 1017.4c0 .3 -.1 .7 -.2 1.1c-.2 .3 -.4 .6 -.6 .9c-.3 .3 -.6 .5 -1 .6c-.3 .2 -.7 .2 -1.1 .2c-.3 0 -.7 0 -1.1 -.2c-.3 -.1 -.6 -.3 -.9 -.6c-.3 -.3 -.5 -.6 -.6 -.9c-.2 -.4 -.2 -.8 -.2 -1.1c0 -.4 0 -.8 .2 -1.1c.1 -.4 .3 -.7 .6 -1c.3 -.2 .6 -.4 .9 -.6c.4 -.1 .8 -.2 1.1 -.2c.4 0 .8 .1 1.1 .2c.4 .2 .7 .4 1 .6c.2 .3 .4 .6 .6 1c.1 .3 .2 .7 .2 1.1Z" class="g2_1"/>
<path d="M271.7 1040.3c0 .4 -.1 .7 -.2 1.1c-.2 .3 -.4 .6 -.6 .9c-.3 .3 -.6 .5 -1 .6c-.3 .2 -.7 .2 -1.1 .2c-.3 0 -.7 0 -1.1 -.2c-.3 -.1 -.6 -.3 -.9 -.6c-.3 -.3 -.5 -.6 -.6 -.9c-.2 -.4 -.2 -.7 -.2 -1.1c0 -.4 0 -.8 .2 -1.1c.1 -.4 .3 -.7 .6 -.9c.3 -.3 .6 -.5 .9 -.7c.4 -.1 .8 -.2 1.1 -.2c.4 0 .8 .1 1.1 .2c.4 .2 .7 .4 1 .7c.2 .2 .4 .5 .6 .9c.1 .3 .2 .7 .2 1.1Z" class="g2_1"/>
<path d="M271.7 1063.2c0 .4 -.1 .7 -.2 1.1c-.2 .3 -.4 .7 -.6 .9c-.3 .3 -.6 .5 -1 .6c-.3 .2 -.7 .3 -1.1 .3c-.3 0 -.7 -.1 -1.1 -.3c-.3 -.1 -.6 -.3 -.9 -.6c-.3 -.2 -.5 -.6 -.6 -.9c-.2 -.4 -.2 -.7 -.2 -1.1c0 -.4 0 -.8 .2 -1.1c.1 -.4 .3 -.7 .6 -.9c.3 -.3 .6 -.5 .9 -.7c.4 -.1 .8 -.2 1.1 -.2c.4 0 .8 .1 1.1 .2c.4 .2 .7 .4 1 .7c.2 .2 .4 .5 .6 .9c.1 .3 .2 .7 .2 1.1Z" class="g2_1"/>
<path d="M271.7 1086.1c0 .4 -.1 .8 -.2 1.1c-.2 .4 -.4 .7 -.6 .9c-.3 .3 -.6 .5 -1 .7c-.3 .1 -.7 .2 -1.1 .2c-.3 0 -.7 -.1 -1.1 -.2c-.3 -.2 -.6 -.4 -.9 -.7c-.3 -.2 -.5 -.5 -.6 -.9c-.2 -.3 -.2 -.7 -.2 -1.1c0 -.4 0 -.7 .2 -1.1c.1 -.3 .3 -.6 .6 -.9c.3 -.3 .6 -.5 .9 -.6c.4 -.2 .8 -.3 1.1 -.3c.4 0 .8 .1 1.1 .3c.4 .1 .7 .3 1 .6c.2 .3 .4 .6 .6 .9c.1 .4 .2 .7 .2 1.1Z" class="g2_1"/>
<path d="M271.7 1109c0 .4 -.1 .8 -.2 1.1c-.2 .4 -.4 .7 -.6 1c-.3 .2 -.6 .4 -1 .6c-.3 .1 -.7 .2 -1.1 .2c-.3 0 -.7 -.1 -1.1 -.2c-.3 -.2 -.6 -.4 -.9 -.6c-.3 -.3 -.5 -.6 -.6 -1c-.2 -.3 -.2 -.7 -.2 -1.1c0 -.4 0 -.7 .2 -1.1c.1 -.3 .3 -.6 .6 -.9c.3 -.3 .6 -.5 .9 -.6c.4 -.2 .8 -.2 1.1 -.2c.4 0 .8 0 1.1 .2c.4 .1 .7 .3 1 .6c.2 .3 .4 .6 .6 .9c.1 .4 .2 .7 .2 1.1Z" class="g2_1"/>
<path d="M271.7 1163.3c0 .4 -.1 .8 -.2 1.1c-.2 .4 -.4 .7 -.6 .9c-.3 .3 -.6 .5 -1 .7c-.3 .1 -.7 .2 -1.1 .2c-.3 0 -.7 -.1 -1.1 -.2c-.3 -.2 -.6 -.4 -.9 -.7c-.3 -.2 -.5 -.5 -.6 -.9c-.2 -.3 -.2 -.7 -.2 -1.1c0 -.4 0 -.7 .2 -1.1c.1 -.3 .3 -.6 .6 -.9c.3 -.3 .6 -.5 .9 -.6c.4 -.2 .8 -.2 1.1 -.2c.4 0 .8 0 1.1 .2c.4 .1 .7 .3 1 .6c.2 .3 .4 .6 .6 .9c.1 .4 .2 .7 .2 1.1Z" class="g2_1"/>
<path d="M271.7 1186.2c0 .4 -.1 .8 -.2 1.1c-.2 .4 -.4 .7 -.6 1c-.3 .2 -.6 .4 -1 .6c-.3 .1 -.7 .2 -1.1 .2c-.3 0 -.7 -.1 -1.1 -.2c-.3 -.2 -.6 -.4 -.9 -.6c-.3 -.3 -.5 -.6 -.6 -1c-.2 -.3 -.2 -.7 -.2 -1.1c0 -.3 0 -.7 .2 -1.1c.1 -.3 .3 -.6 .6 -.9c.3 -.3 .6 -.5 .9 -.6c.4 -.2 .8 -.2 1.1 -.2c.4 0 .8 0 1.1 .2c.4 .1 .7 .3 1 .6c.2 .3 .4 .6 .6 .9c.1 .4 .2 .8 .2 1.1Z" class="g2_1"/>
<path d="M271.7 1209.1c0 .4 -.1 .8 -.2 1.1c-.2 .4 -.4 .7 -.6 1c-.3 .2 -.6 .5 -1 .6c-.3 .1 -.7 .2 -1.1 .2c-.3 0 -.7 -.1 -1.1 -.2c-.3 -.1 -.6 -.4 -.9 -.6c-.3 -.3 -.5 -.6 -.6 -1c-.2 -.3 -.2 -.7 -.2 -1.1c0 -.3 0 -.7 .2 -1c.1 -.4 .3 -.7 .6 -1c.3 -.2 .6 -.5 .9 -.6c.4 -.1 .8 -.2 1.1 -.2c.4 0 .8 .1 1.1 .2c.4 .1 .7 .4 1 .6c.2 .3 .4 .6 .6 1c.1 .3 .2 .7 .2 1Z" class="g2_1"/>
<path d="M271.7 1232.1c0 .3 -.1 .7 -.2 1.1c-.2 .3 -.4 .6 -.6 .9c-.3 .3 -.6 .5 -1 .6c-.3 .2 -.7 .2 -1.1 .2c-.3 0 -.7 0 -1.1 -.2c-.3 -.1 -.6 -.3 -.9 -.6c-.3 -.3 -.5 -.6 -.6 -.9c-.2 -.4 -.2 -.8 -.2 -1.1c0 -.4 0 -.8 .2 -1.1c.1 -.4 .3 -.7 .6 -1c.3 -.2 .6 -.4 .9 -.6c.4 -.1 .8 -.2 1.1 -.2c.4 0 .8 .1 1.1 .2c.4 .2 .7 .4 1 .6c.2 .3 .4 .6 .6 1c.1 .3 .2 .7 .2 1.1Z" class="g2_1"/>
<path d="M271.7 1255c0 .4 -.1 .7 -.2 1.1c-.2 .3 -.4 .6 -.6 .9c-.3 .3 -.6 .5 -1 .6c-.3 .2 -.7 .2 -1.1 .2c-.3 0 -.7 0 -1.1 -.2c-.3 -.1 -.6 -.3 -.9 -.6c-.3 -.3 -.5 -.6 -.6 -.9c-.2 -.4 -.2 -.7 -.2 -1.1c0 -.4 0 -.8 .2 -1.1c.1 -.4 .3 -.7 .6 -.9c.3 -.3 .6 -.5 .9 -.7c.4 -.1 .8 -.2 1.1 -.2c.4 0 .8 .1 1.1 .2c.4 .2 .7 .4 1 .7c.2 .2 .4 .5 .6 .9c.1 .3 .2 .7 .2 1.1Z" class="g2_1"/>
<path d="M690.9 169.3V37.4H860.2V231.8H690.9V169.3h3.3" class="g1_1"/>
</svg>