<?xml version="1.0" encoding="UTF-8" standalone="no"?>
<!DOCTYPE svg PUBLIC "-//W3C//DTD SVG 1.1//EN"
"http://www.w3.org/Graphics/SVG/1.1/DTD/svg11.dtd">
<svg viewBox="0 0 909 1286" version="1.1" xmlns="http://www.w3.org/2000/svg" xmlns:xlink="http://www.w3.org/1999/xlink">
<defs>
<clipPath id="c0_2"><path d="M0 1286.8V0H909.8V1286.8Z"/></clipPath>
<style type="text/css"><![CDATA[
.g0_2{
fill: #FFF;
}
.g1_2{
fill: none;
stroke: #5F67A4;
stroke-width: 4.583;
stroke-miterlimit: 10;
}
.g2_2{
fill: #000;
}
]]></style>
</defs>
<g clip-path="url(#c0_2)">
<path d="M0 0H909.8V1286.8H0V0Z" class="g0_2"/>
<path d="M0 0H909.8V1286.8H0V0Z" class="g0_2"/>
</g>
<path d="M319 55.5H858.9M174.4 172.7H858.9M174.4 338.2H858.9M174.4 882.9H858.9M199.5 1059.6H858.9" class="g1_2"/>
<path d="M279.9 100.1c0 .4 -.1 .8 -.3 1.1c-.1 .4 -.3 .7 -.6 1c-.2 .2 -.6 .5 -.9 .6c-.4 .1 -.7 .2 -1.1 .2c-.4 0 -.7 -.1 -1.1 -.2c-.3 -.1 -.7 -.4 -.9 -.6c-.3 -.3 -.5 -.6 -.6 -1c-.2 -.3 -.3 -.7 -.3 -1.1c0 -.3 .1 -.7 .3 -1c.1 -.4 .3 -.7 .6 -1c.2 -.2 .6 -.5 .9 -.6c.4 -.1 .7 -.2 1.1 -.2c.4 0 .7 .1 1.1 .2c.3 .1 .7 .4 .9 .6c.3 .3 .5 .6 .6 1c.2 .3 .3 .7 .3 1Z" class="g2_2"/>
<path d="M279.9 123.1c0 .3 -.1 .7 -.3 1.1c-.1 .3 -.3 .6 -.6 .9c-.2 .3 -.6 .5 -.9 .6c-.4 .2 -.7 .2 -1.1 .2c-.4 0 -.7 0 -1.1 -.2c-.3 -.1 -.7 -.3 -.9 -.6c-.3 -.3 -.5 -.6 -.6 -.9c-.2 -.4 -.3 -.8 -.3 -1.1c0 -.4 .1 -.8 .3 -1.1c.1 -.4 .3 -.7 .6 -1c.2 -.2 .6 -.4 .9 -.6c.4 -.1 .7 -.2 1.1 -.2c.4 0 .7 .1 1.1 .2c.3 .2 .7 .4 .9 .6c.3 .3 .5 .6 .6 1c.2 .3 .3 .7 .3 1.1Z" class="g2_2"/>
<path d="M279.9 209.4c0 .4 -.1 .7 -.3 1.1c-.1 .3 -.3 .6 -.6 .9c-.2 .3 -.6 .5 -.9 .6c-.4 .2 -.7 .3 -1.1 .3c-.4 0 -.7 -.1 -1.1 -.3c-.3 -.1 -.7 -.3 -.9 -.6c-.3 -.3 -.5 -.6 -.6 -.9c-.2 -.4 -.3 -.7 -.3 -1.1c0 -.4 .1 -.8 .3 -1.1c.1 -.4 .3 -.7 .6 -.9c.2 -.3 .6 -.5 .9 -.7c.4 -.1 .7 -.2 1.1 -.2c.4 0 .7 .1 1.1 .2c.3 .2 .7 .4 .9 .7c.3 .2 .5 .5 .6 .9c.2 .3 .3 .7 .3 1.1Z" class="g2_2"/>
<path d="M279.9 232.3c0 .4 -.1 .7 -.3 1.1c-.1 .3 -.3 .7 -.6 .9c-.2 .3 -.6 .5 -.9 .6c-.4 .2 -.7 .3 -1.1 .3c-.4 0 -.7 -.1 -1.1 -.3c-.3 -.1 -.7 -.3 -.9 -.6c-.3 -.2 -.5 -.6 -.6 -.9c-.2 -.4 -.3 -.7 -.3 -1.1c0 -.4 .1 -.7 .3 -1.1c.1 -.3 .3 -.7 .6 -.9c.2 -.3 .6 -.5 .9 -.6c.4 -.2 .7 -.3 1.1 -.3c.4 0 .7 .1 1.1 .3c.3 .1 .7 .3 .9 .6c.3 .2 .5 .6 .6 .9c.2 .4 .3 .7 .3 1.1Z" class="g2_2"/>
<path d="M279.9 278.1c0 .4 -.1 .8 -.3 1.1c-.1 .4 -.3 .7 -.6 1c-.2 .2 -.6 .4 -.9 .6c-.4 .1 -.7 .2 -1.1 .2c-.4 0 -.7 -.1 -1.1 -.2c-.3 -.2 -.7 -.4 -.9 -.6c-.3 -.3 -.5 -.6 -.6 -1c-.2 -.3 -.3 -.7 -.3 -1.1c0 -.3 .1 -.7 .3 -1.1c.1 -.3 .3 -.6 .6 -.9c.2 -.3 .6 -.5 .9 -.6c.4 -.2 .7 -.2 1.1 -.2c.4 0 .7 0 1.1 .2c.3 .1 .7 .3 .9 .6c.3 .3 .5 .6 .6 .9c.2 .4 .3 .8 .3 1.1Z" class="g2_2"/>
<path d="M279.9 373.7c0 .4 -.1 .8 -.3 1.1c-.1 .4 -.3 .7 -.6 1c-.2 .2 -.6 .4 -.9 .6c-.4 .1 -.7 .2 -1.1 .2c-.4 0 -.7 -.1 -1.1 -.2c-.3 -.2 -.7 -.4 -.9 -.6c-.3 -.3 -.5 -.6 -.6 -1c-.2 -.3 -.3 -.7 -.3 -1.1c0 -.3 .1 -.7 .3 -1.1c.1 -.3 .3 -.6 .6 -.9c.2 -.3 .6 -.5 .9 -.6c.4 -.2 .7 -.2 1.1 -.2c.4 0 .7 0 1.1 .2c.3 .1 .7 .3 .9 .6c.3 .3 .5 .6 .6 .9c.2 .4 .3 .8 .3 1.1Z" class="g2_2"/>
<path d="M279.9 496.9c0 .4 -.1 .7 -.3 1.1c-.1 .3 -.3 .6 -.6 .9c-.2 .3 -.6 .5 -.9 .6c-.4 .2 -.7 .2 -1.1 .2c-.4 0 -.7 0 -1.1 -.2c-.3 -.1 -.7 -.3 -.9 -.6c-.3 -.3 -.5 -.6 -.6 -.9c-.2 -.4 -.3 -.7 -.3 -1.1c0 -.4 .1 -.8 .3 -1.1c.1 -.4 .3 -.7 .6 -.9c.2 -.3 .6 -.5 .9 -.7c.4 -.1 .7 -.2 1.1 -.2c.4 0 .7 .1 1.1 .2c.3 .2 .7 .4 .9 .7c.3 .2 .5 .5 .6 .9c.2 .3 .3 .7 .3 1.1Z" class="g2_2"/>
<path d="M279.9 724.1c0 .4 -.1 .7 -.3 1.1c-.1 .3 -.3 .6 -.6 .9c-.2 .3 -.6 .5 -.9 .6c-.4 .2 -.7 .2 -1.1 .2c-.4 0 -.7 0 -1.1 -.2c-.3 -.1 -.7 -.3 -.9 -.6c-.3 -.3 -.5 -.6 -.6 -.9c-.2 -.4 -.3 -.7 -.3 -1.1c0 -.4 .1 -.8 .3 -1.1c.1 -.4 .3 -.7 .6 -.9c.2 -.3 .6 -.5 .9 -.7c.4 -.1 .7 -.2 1.1 -.2c.4 0 .7 .1 1.1 .2c.3 .2 .7 .4 .9 .7c.3 .2 .5 .5 .6 .9c.2 .3 .3 .7 .3 1.1Z" class="g2_2"/>
<path d="M279.9 927c0 .4 -.1 .8 -.3 1.1c-.1 .4 -.3 .7 -.6 1c-.2 .2 -.6 .4 -.9 .6c-.4 .1 -.7 .2 -1.1 .2c-.4 0 -.7 -.1 -1.1 -.2c-.3 -.2 -.7 -.4 -.9 -.6c-.3 -.3 -.5 -.6 -.6 -1c-.2 -.3 -.3 -.7 -.3 -1.1c0 -.3 .1 -.7 .3 -1.1c.1 -.3 .3 -.6 .6 -.9c.2 -.2 .6 -.5 .9 -.6c.4 -.1 .7 -.2 1.1 -.2c.4 0 .7 .1 1.1 .2c.3 .1 .7 .4 .9 .6c.3 .3 .5 .6 .6 .9c.2 .4 .3 .8 .3 1.1Z" class="g2_2"/>
<path d="M279.9 950c0 .3 -.1 .7 -.3 1.1c-.1 .3 -.3 .6 -.6 .9c-.2 .3 -.6 .5 -.9 .6c-.4 .2 -.7 .2 -1.1 .2c-.4 0 -.7 0 -1.1 -.2c-.3 -.1 -.7 -.3 -.9 -.6c-.3 -.3 -.5 -.6 -.6 -.9c-.2 -.4 -.3 -.8 -.3 -1.1c0 -.4 .1 -.8 .3 -1.1c.1 -.4 .3 -.7 .6 -1c.2 -.2 .6 -.4 .9 -.6c.4 -.1 .7 -.2 1.1 -.2c.4 0 .7 .1 1.1 .2c.3 .2 .7 .4 .9 .6c.3 .3 .5 .6 .6 1c.2 .3 .3 .7 .3 1.1Z" class="g2_2"/>
<path d="M279.9 972.9c0 .4 -.1 .7 -.3 1.1c-.1 .3 -.3 .6 -.6 .9c-.2 .3 -.6 .5 -.9 .6c-.4 .2 -.7 .2 -1.1 .2c-.4 0 -.7 0 -1.1 -.2c-.3 -.1 -.7 -.3 -.9 -.6c-.3 -.3 -.5 -.6 -.6 -.9c-.2 -.4 -.3 -.7 -.3 -1.1c0 -.4 .1 -.8 .3 -1.1c.1 -.4 .3 -.7 .6 -.9c.2 -.3 .6 -.5 .9 -.7c.4 -.1 .7 -.2 1.1 -.2c.4 0 .7 .1 1.1 .2c.3 .2 .7 .4 .9 .7c.3 .2 .5 .5 .6 .9c.2 .3 .3 .7 .3 1.1Z" class="g2_2"/>
<path d="M279.9 995.8c0 .4 -.1 .7 -.3 1.1c-.1 .3 -.3 .7 -.6 .9c-.2 .3 -.6 .5 -.9 .6c-.4 .2 -.7 .3 -1.1 .3c-.4 0 -.7 -.1 -1.1 -.3c-.3 -.1 -.7 -.3 -.9 -.6c-.3 -.2 -.5 -.6 -.6 -.9c-.2 -.4 -.3 -.7 -.3 -1.1c0 -.4 .1 -.8 .3 -1.1c.1 -.4 .3 -.7 .6 -.9c.2 -.3 .6 -.5 .9 -.7c.4 -.1 .7 -.2 1.1 -.2c.4 0 .7 .1 1.1 .2c.3 .2 .7 .4 .9 .7c.3 .2 .5 .5 .6 .9c.2 .3 .3 .7 .3 1.1Z" class="g2_2"/>
<path d="M279.9 1095.1c0 .4 -.1 .8 -.3 1.1c-.1 .4 -.3 .7 -.6 1c-.2 .2 -.6 .4 -.9 .6c-.4 .1 -.7 .2 -1.1 .2c-.4 0 -.7 -.1 -1.1 -.2c-.3 -.2 -.7 -.4 -.9 -.6c-.3 -.3 -.5 -.6 -.6 -1c-.2 -.3 -.3 -.7 -.3 -1.1c0 -.3 .1 -.7 .3 -1.1c.1 -.3 .3 -.6 .6 -.9c.2 -.3 .6 -.5 .9 -.6c.4 -.2 .7 -.2 1.1 -.2c.4 0 .7 0 1.1 .2c.3 .1 .7 .3 .9 .6c.3 .3 .5 .6 .6 .9c.2 .4 .3 .8 .3 1.1Z" class="g2_2"/>
</svg>